<svg width="147" height="40" viewBox="0 0 147 40" fill="none" xmlns="http://www.w3.org/2000/svg">
<g clip-path="url(#clip0_2426_616)">
<path d="M21.7042 40C20.7862 39.9568 19.8654 39.9406 18.9503 39.865C15.7159 39.5976 12.7319 38.6387 10.0183 36.9668C6.23433 34.633 3.52078 31.4647 1.77697 27.5563C1.06621 25.9599 0.528102 24.3096 0.205814 22.5998C-0.0215147 21.3843 -0.030147 20.1635 0.0533027 18.9399C0.148263 17.5353 0.37847 16.1497 0.775575 14.7911C1.97265 10.6827 4.48477 7.44687 8.17957 5.00241C9.96079 3.82475 11.9003 2.92529 13.9175 2.1663C16.0181 1.37616 18.1833 0.746566 20.392 0.283658C21.9119 -0.038576 23.4834 -0.0853316 25.022 0.145904C29.301 0.791458 33.062 2.46611 36.2359 5.25091C38.5524 7.28481 40.3595 9.65094 41.4846 12.4519C42.1004 13.9753 42.4688 15.55 42.6241 17.1734C42.7401 18.3748 42.7785 19.5817 42.7393 20.7874C42.6098 24.7499 41.3177 28.3558 38.8891 31.5862C36.5266 34.733 33.4763 37.1153 29.6779 38.6063C27.2406 39.5652 24.7026 40.0514 22.0524 39.973C21.9373 39.9676 21.8222 39.973 21.7071 39.973L21.7042 40ZM39.8933 19.8096H39.8876C39.8876 19.5935 39.8847 19.3775 39.8876 19.1614C39.9106 17.4219 39.6746 15.7148 39.0905 14.0591C38.0488 11.0906 36.1813 8.64074 33.6691 6.62305C31.229 4.65938 28.3802 3.4601 25.2609 2.81725C24.1472 2.58766 23.0192 2.50933 21.8883 2.71461C19.1144 3.22511 16.4181 3.97331 13.834 5.05643C12.1995 5.7398 10.6284 6.52581 9.20399 7.54951C7.06308 9.09181 5.40272 10.9907 4.33226 13.3271C3.94378 14.1725 3.64452 15.045 3.39705 15.9336C2.90786 17.692 2.71794 19.4801 2.92225 21.2871C3.23302 24.026 4.12795 26.5947 5.64155 28.9608C7.37673 31.6673 9.67304 33.847 12.6341 35.3758C14.6426 36.413 16.7749 37.0748 19.0798 37.1882C19.9805 37.2342 20.8783 37.2909 21.779 37.3233C23.314 37.3802 24.8499 37.2311 26.34 36.8803C28.4722 36.3833 30.3945 35.465 32.1728 34.2738C35.3122 32.1697 37.4848 29.3741 38.8373 26.0032C39.4732 24.423 39.8559 22.797 39.8905 21.1061C39.8991 20.674 39.8933 20.2418 39.8933 19.8096Z" fill="#0E0466"/>
<path d="M59.7051 11.9387H66.03C66.7379 11.9387 66.8328 12.0306 66.83 12.6761C66.8261 13.9186 66.8252 15.1602 66.8271 16.4009C66.83 17.0842 66.7667 17.1599 66.0617 17.1599C65.7739 17.1599 65.4833 17.1599 65.2013 17.1248C64.8186 17.0761 64.6574 16.9195 64.6229 16.5602C64.5883 16.201 64.6027 15.839 64.5912 15.4798C64.5855 15.2286 64.5912 14.9747 64.5538 14.7262C64.4905 14.3157 64.3179 14.1752 63.869 14.1374C63.6589 14.1185 63.4459 14.1158 63.2359 14.1158L58.462 14.1104C57.7455 14.1077 57.6678 14.1833 57.6678 14.8478C57.6678 16.0713 57.6735 17.2976 57.662 18.5212C57.6591 19.0047 57.6764 19.2505 58.4275 19.2397C59.8662 19.2235 61.3022 19.2316 62.7409 19.2316C62.9136 19.2316 63.0863 19.2289 63.2589 19.2424C63.4316 19.2559 63.5409 19.3423 63.5668 19.5125C63.6416 19.9771 63.6186 20.4471 63.5351 20.9089C63.5006 21.1007 63.3682 21.2412 63.1611 21.2763C62.8992 21.3195 62.6316 21.36 62.3669 21.36C61.0806 21.3708 59.7972 21.3654 58.5109 21.3654C58.3584 21.3654 58.203 21.36 58.0534 21.3789C57.8289 21.4032 57.7109 21.5194 57.6822 21.7274C57.6687 21.853 57.6639 21.9793 57.6678 22.1055C57.6659 23.5065 57.6649 24.9101 57.6649 26.3165C57.6678 26.4245 57.662 26.5325 57.6735 26.6406C57.7023 26.9161 57.8145 27.0268 58.1138 27.0349C58.5138 27.0457 58.9166 27.0349 59.3195 27.0349C59.4346 27.0349 59.5497 27.0241 59.6648 27.0322C59.8605 27.0457 59.9957 27.1511 60.0245 27.3267C60.108 27.829 60.0993 28.3341 59.9555 28.8257C59.895 29.0337 59.7051 29.1391 59.4778 29.158C59.1929 29.1796 58.9051 29.1985 58.6174 29.1985C57.5239 29.2039 56.4304 29.1985 55.3398 29.2012C54.6492 29.2039 53.9586 29.2147 53.268 29.2174C52.6407 29.2201 52.5313 29.1202 52.5284 28.5313C52.5256 28.245 52.5256 27.9533 52.5658 27.6697C52.6205 27.2699 52.7615 27.1484 53.1903 27.089C53.3993 27.0637 53.6097 27.0493 53.8205 27.0457C54.0104 27.0376 54.2032 27.0484 54.396 27.0349C54.7183 27.0106 54.8334 26.9107 54.8679 26.5974C54.8866 26.3637 54.8924 26.1293 54.8852 25.8951C54.8794 23.791 54.865 21.6841 54.8621 19.58C54.8593 18.1944 54.8794 16.8087 54.8852 15.4231C54.888 15.153 54.8967 14.8829 54.8765 14.6128C54.8506 14.2373 54.7384 14.1347 54.3499 14.1104C54.16 14.0996 53.9672 14.1131 53.7744 14.0996C53.5269 14.0834 53.2766 14.0645 53.032 14.0293C52.7874 13.9942 52.6579 13.8592 52.5975 13.6485C52.5707 13.5806 52.5533 13.5098 52.5457 13.4378C52.5371 13.0786 52.5227 12.7193 52.5371 12.3601C52.5515 12.0846 52.6752 11.9846 52.9745 11.9549C53.0896 11.9441 53.2047 11.9495 53.3198 11.9495H59.7051V11.9387Z" fill="#0E0466"/>
<path d="M117.479 12.9866C117.571 12.7975 117.655 12.6409 117.721 12.4788C117.888 12.079 118.204 11.8873 118.656 11.8981C118.944 11.9035 119.229 11.9224 119.516 11.9467C119.683 11.9602 119.847 11.9953 120.034 12.0223C119.994 12.2141 119.971 12.3734 119.931 12.5301C119.635 13.7204 119.338 14.9106 119.039 16.1009C119.03 16.1546 119.019 16.2078 119.004 16.2603C118.906 16.579 118.826 16.6438 118.483 16.6465C118.08 16.6465 117.678 16.6492 117.278 16.6249C116.973 16.6087 116.872 16.4953 116.866 16.2117C116.861 16.0499 116.871 15.8881 116.898 15.7282C116.961 15.3959 116.832 15.1312 116.598 14.8935C115.954 14.2291 115.142 13.8509 114.207 13.7051C113.594 13.6078 112.984 13.6321 112.391 13.8293C112.266 13.8716 112.143 13.9212 112.023 13.9779C110.581 14.6585 110.167 16.1495 111.088 17.3947C111.286 17.6596 111.518 17.9008 111.779 18.1132C112.167 18.4319 112.584 18.7236 113.002 19.01C113.574 19.4016 114.173 19.7608 114.74 20.1606C115.154 20.4496 115.565 20.7521 115.928 21.0952C118.624 23.6612 117.47 28.0153 113.804 29.0876C112.682 29.4171 111.525 29.5603 110.343 29.3928C109.621 29.295 108.925 29.0705 108.291 28.7311L108.043 28.5906C107.595 28.3448 107.54 28.361 107.422 28.8607C107.37 29.0714 107.246 29.1713 107.033 29.1902C106.573 29.2308 106.116 29.2551 105.658 29.174C105.336 29.12 105.232 28.9985 105.241 28.696C105.247 28.5702 105.266 28.4454 105.298 28.3232C105.565 27.2194 105.834 26.1155 106.107 25.0117C106.121 24.9577 106.133 24.9037 106.15 24.8523C106.254 24.5363 106.389 24.4418 106.728 24.4418C107.166 24.4391 107.606 24.4364 108.046 24.4391C108.349 24.4418 108.469 24.566 108.423 24.8469C108.377 25.1279 108.323 25.3412 108.268 25.587C108.187 25.9409 108.288 26.2353 108.602 26.4433C109.407 26.9808 110.268 27.4021 111.281 27.4751C112.294 27.548 113.177 27.2671 113.951 26.6783C115.027 25.8625 115.252 24.5201 114.486 23.4343C114.282 23.1513 114.039 22.8944 113.764 22.6699C113.367 22.335 112.935 22.0297 112.507 21.7272C111.968 21.3518 111.413 21.0006 110.872 20.6252C110.331 20.2497 109.882 19.8851 109.462 19.4394C108.725 18.6642 108.271 17.7756 108.161 16.733C107.949 14.6991 109.255 12.7408 111.31 12.0817C112.55 11.6847 113.819 11.5982 115.105 11.8656C115.81 12.0115 116.446 12.2951 117.027 12.6895C117.162 12.784 117.303 12.8731 117.479 12.9866Z" fill="#0E0466"/>
<path d="M95.5059 19.3557C95.8569 19.8392 97.2123 21.2005 97.6008 21.4652C97.6842 21.4193 97.7993 21.3842 97.8684 21.3113C98.4237 20.7386 98.9705 20.1579 99.5143 19.5772C99.5604 19.5313 99.5748 19.4583 99.6064 19.3908C99.4223 19.2476 99.2208 19.2909 99.0395 19.2557C98.6597 19.1801 98.5705 19.1126 98.5561 18.7696C98.5388 18.3725 98.5446 17.9781 98.5446 17.5811C98.5446 17.5109 98.5647 17.4406 98.5734 17.3704C98.7403 17.1975 98.9561 17.211 99.1633 17.211L100.832 17.2164L103.652 17.2083C104.547 17.2056 104.573 17.2273 104.587 18.0889C104.59 18.322 104.574 18.555 104.539 18.7858C104.507 19.0316 104.337 19.1747 104.087 19.2071C103.836 19.2395 103.589 19.2503 103.342 19.2666C103.169 19.2801 102.996 19.2828 102.824 19.2909C102.708 19.2967 102.595 19.3246 102.492 19.3729C102.388 19.4212 102.297 19.4889 102.222 19.5718L101.92 19.8959C101.109 20.7602 100.296 21.6237 99.4827 22.4862L99.4079 22.5672C99.028 22.9751 99.028 23.0615 99.428 23.4721C100.386 24.4553 101.342 25.4412 102.303 26.419C102.444 26.5652 102.6 26.6982 102.769 26.816C103.064 27.0247 103.432 27.1212 103.799 27.0861C103.894 27.078 103.989 27.0537 104.084 27.051C104.369 27.0429 104.51 27.1509 104.556 27.4157C104.576 27.5218 104.585 27.6293 104.585 27.7371C104.585 27.9343 104.585 28.1341 104.57 28.3313C104.524 29.0255 104.403 29.1416 103.681 29.1848C103.471 29.1956 103.258 29.1983 103.048 29.1983H99.9978C99.7129 29.1983 99.4251 29.2092 99.1374 29.2092C98.9475 29.2092 98.7489 29.22 98.6021 29.0741C98.5388 28.7419 98.5273 27.8694 98.5734 27.6263C98.6194 27.3832 98.8007 27.1753 99.1 27.1266C99.2669 27.0996 99.4424 27.0888 99.6122 27.0699L100.107 26.9997C100.029 26.8916 99.9891 26.816 99.9287 26.7539C99.2861 26.111 98.6424 25.4691 97.9979 24.828C97.9468 24.7734 97.892 24.722 97.8338 24.6741C97.6784 24.5552 97.5346 24.566 97.3763 24.7038C97.3347 24.7414 97.2954 24.7811 97.2583 24.8226C96.679 25.4493 96.1015 26.075 95.526 26.6999C95.4709 26.7658 95.4209 26.8353 95.3764 26.9079C95.4598 27.0753 95.6008 27.0645 95.7303 27.0591C95.9404 27.0537 96.1505 27.0294 96.3634 27.024C96.5763 27.0186 96.6857 27.1185 96.7375 27.2968C96.7519 27.3508 96.772 27.3994 96.7835 27.4535C96.8555 27.7803 96.8094 28.7149 96.703 29.1146C96.5389 29.2362 96.3404 29.1957 96.1562 29.1957C94.8325 29.2011 93.5088 29.1983 92.1852 29.1983C91.86 29.1983 91.5348 29.2092 91.2068 29.2092C91.0731 29.2087 90.9396 29.2015 90.8068 29.1875C90.6543 29.1713 90.5536 29.0822 90.5449 28.9417C90.5248 28.4745 90.4932 28.0072 90.5075 27.5399C90.519 27.1888 90.7262 27.0213 91.0974 27.0132C91.3276 27.0087 91.5577 27.0231 91.7852 27.0564C92.1996 27.1158 92.5276 27.0051 92.8096 26.7026C93.8196 25.6221 94.8469 24.5498 95.8656 23.4748C95.9289 23.4073 95.9864 23.3371 96.044 23.2641C96.1706 23.094 96.162 22.9238 96.0296 22.7644C95.8972 22.6051 95.8023 22.5213 95.6843 22.4025C94.8239 21.5327 93.9434 20.6792 93.106 19.7879C92.7261 19.3827 92.3175 19.1855 91.7478 19.2774C91.5809 19.3044 91.4025 19.2882 91.2327 19.2693C91.1552 19.263 91.0823 19.232 91.0263 19.1813C90.9702 19.1307 90.9344 19.0635 90.9248 18.991C90.8471 18.5238 90.85 18.0565 90.9737 17.5973C90.9944 17.5171 91.0408 17.4448 91.1067 17.3903C91.1726 17.3357 91.2547 17.3014 91.342 17.2921C91.6259 17.2501 91.9123 17.2258 92.1996 17.2192C93.1952 17.2137 94.1908 17.2273 95.1893 17.2273C95.4944 17.2273 95.8023 17.2083 96.1102 17.2029C96.2437 17.1976 96.3776 17.203 96.5101 17.2192C96.7519 17.257 96.9073 17.3893 96.9159 17.6081C96.9313 17.9675 96.9236 18.3273 96.8929 18.6858C96.867 18.9883 96.6771 19.1774 96.3461 19.226C96.0814 19.2639 95.8195 19.3071 95.5059 19.3557Z" fill="#0E0466"/>
<path d="M89.4456 26.4434C89.3535 26.573 89.2902 26.6811 89.2125 26.7783C88.1344 28.1342 86.7109 28.9806 84.9422 29.3173C83.5523 29.582 82.1509 29.6225 80.7841 29.2471C78.3755 28.588 76.7785 27.1213 76.0706 24.8524C75.7224 23.7342 75.8404 22.6052 76.1656 21.495C76.2116 21.3384 76.2663 21.1844 76.3238 21.0331C77.0634 18.9803 78.5511 17.6649 80.7841 17.1247C83.3509 16.5062 85.6098 17.0653 87.5032 18.8048C88.6111 19.8258 89.2125 21.0926 89.3564 22.5457C89.3765 22.7591 89.4082 22.9752 89.4139 23.1886C89.4283 23.6316 89.3218 23.7369 88.8614 23.7585C88.6514 23.7693 88.4413 23.7666 88.2284 23.7666L79.6589 23.7558C79.486 23.7513 79.313 23.7576 79.141 23.7747C78.8964 23.8098 78.7698 23.9665 78.8043 24.1934C78.8299 24.3531 78.8704 24.5103 78.9251 24.6634C79.492 26.1895 80.6459 27.1078 82.3092 27.4347C83.8429 27.7345 85.1896 27.3347 86.3436 26.3461C86.5224 26.1839 86.7159 26.0366 86.9219 25.9059C87.2442 25.706 87.5982 25.6574 87.9665 25.7897C88.4643 25.9653 88.9276 26.2084 89.4456 26.4434ZM82.7811 22.0893V22.1028H85.886C86.0961 22.1001 86.3061 22.1082 86.5162 22.0839C86.7263 22.0595 86.827 21.9164 86.7752 21.7354C86.7032 21.495 86.6227 21.2492 86.4989 21.0304C85.9004 19.9554 84.9537 19.2613 83.7307 18.8993C83.1222 18.72 82.4726 18.7031 81.8545 18.8507C80.3179 19.2045 79.3884 20.1553 78.9165 21.5409C78.894 21.6096 78.8786 21.6802 78.8705 21.7516C78.8561 21.911 78.9395 22.0406 79.1093 22.0731C79.2771 22.1037 79.4477 22.1182 79.6186 22.1163C80.1366 22.1136 80.6546 22.0947 81.1725 22.0893C81.6905 22.0839 82.243 22.0893 82.7811 22.0893Z" fill="#0E0466"/>
<path d="M128.022 23.745C126.586 23.745 125.148 23.7558 123.712 23.7396C123.073 23.7315 122.869 23.9476 122.871 24.5013C122.883 26.6838 124.906 27.8371 126.67 27.4914C127.542 27.3185 128.287 26.9431 128.871 26.3002C128.932 26.2327 128.992 26.1625 129.058 26.0976C129.231 25.914 129.447 25.8788 129.683 25.9626C129.792 26.0004 129.89 26.0598 129.996 26.1003L131.211 26.5838C131.334 26.6324 131.464 26.673 131.582 26.7297C131.612 26.7444 131.638 26.7646 131.66 26.7892C131.681 26.8138 131.697 26.8423 131.707 26.8728C131.716 26.9034 131.719 26.9354 131.715 26.967C131.711 26.9986 131.7 27.029 131.683 27.0565C131.608 27.1812 131.519 27.2981 131.418 27.4049C130.828 28.0343 130.132 28.5367 129.314 28.8797C127.781 29.5226 126.172 29.6846 124.535 29.3848C122.172 28.95 120.601 27.2861 120.322 25.0361C119.85 21.2276 122.538 18.3267 125.196 17.3408C126.457 16.8762 127.755 16.7033 129.084 17.0086C131.254 17.5083 132.54 18.8345 133.058 20.8468C133.239 21.5545 133.225 22.2756 133.162 22.9941C133.149 23.1199 133.126 23.2445 133.093 23.3669C133.021 23.6451 132.914 23.7342 132.624 23.7531C132.488 23.7639 132.356 23.7585 132.221 23.7585H128.022V23.745ZM127.015 22.0406H128.566L130.114 22.0514C130.21 22.0569 130.307 22.0542 130.402 22.0433C130.629 22.0163 130.753 21.911 130.782 21.703C130.799 21.5785 130.803 21.4528 130.793 21.3276C130.736 20.3147 129.953 19.3369 128.926 19.0155C127.763 18.6535 126.658 18.794 125.625 19.4044C124.722 19.9365 124.091 20.6928 123.654 21.595C123.617 21.676 123.579 21.7651 123.582 21.8516C123.585 21.938 123.64 22.0001 123.691 22.0136C123.795 22.046 123.916 22.0406 124.031 22.0406H127.015Z" fill="#0E0466"/>
<path d="M142.908 27.748C142.695 27.902 142.569 28.0073 142.43 28.0965C142.019 28.3585 141.625 28.6556 141.187 28.8717C140.068 29.4227 138.888 29.5253 137.677 29.1742C135.047 28.4125 134.624 26.0599 135.331 24.4798C135.769 23.5074 136.517 22.8078 137.518 22.3486C139.107 21.622 140.753 21.5194 142.439 21.9921C142.77 22.0839 143.087 22.2109 143.412 22.3216C143.538 22.3621 143.662 22.4107 143.792 22.4405C143.825 22.4486 143.859 22.4504 143.893 22.446C143.927 22.4416 143.959 22.4309 143.989 22.4145C144.018 22.3982 144.044 22.3766 144.064 22.3509C144.085 22.3252 144.1 22.296 144.108 22.2649C144.261 21.6355 144.427 21.0062 144.537 20.3714C144.603 19.9825 144.433 19.6286 144.143 19.3369C143.862 19.0622 143.5 18.8722 143.104 18.7913C141.826 18.5239 140.71 18.8021 139.789 19.6935C139.656 19.8231 139.538 19.9663 139.397 20.0878C139.127 20.3255 138.946 20.3444 138.618 20.1932L137.999 19.9096C137.861 19.8474 137.72 19.788 137.587 19.7151C137.167 19.4855 137.13 19.3234 137.461 19.0101C138.238 18.2754 139.11 17.6623 140.149 17.2868C141.674 16.7304 143.219 16.7223 144.767 17.1761C145.113 17.281 145.441 17.431 145.743 17.6218C146.416 18.0458 146.787 18.6617 146.894 19.4153C146.962 19.9158 146.94 20.4236 146.827 20.9171C146.413 22.7484 145.997 24.5779 145.579 26.4056C145.546 26.5271 145.522 26.6508 145.509 26.7757C145.492 27.0377 145.63 27.1781 145.915 27.1916C146.048 27.1943 146.183 27.1673 146.315 27.1646C146.468 27.1619 146.621 27.1673 146.773 27.1808C146.825 27.1862 146.873 27.224 146.951 27.2618C146.908 27.7399 146.856 28.218 146.718 28.6826C146.609 29.0581 146.332 29.2525 145.918 29.2633C145.668 29.2687 145.42 29.2579 145.17 29.2525L143.161 29.212C143.104 29.212 143.046 29.2147 142.989 29.2093C142.75 29.1877 142.649 29.0608 142.701 28.8447C142.77 28.5638 142.842 28.2828 142.908 28.0046C142.92 27.9533 142.908 27.8993 142.908 27.748ZM143.561 24.2286C143.484 24.1745 143.429 24.1205 143.363 24.0962C142.917 23.9341 142.474 23.7586 142.019 23.6262C141.254 23.3993 140.471 23.3831 139.691 23.5371C138.782 23.7154 138.062 24.1637 137.636 24.9578C137.087 25.9842 137.556 27.0647 138.704 27.4563C139.245 27.64 139.797 27.6373 140.347 27.5157C141.34 27.297 142.194 26.8378 142.937 26.1841C143.121 26.0221 143.271 25.8357 143.34 25.6034C143.481 25.155 143.544 24.6958 143.561 24.2286Z" fill="#0E0466"/>
<path d="M72.4188 19.4936C72.4188 21.7445 72.4197 23.9945 72.4217 26.2436C72.4178 26.405 72.4255 26.5665 72.4447 26.727C72.4706 26.9026 72.5914 27.0215 72.7842 27.0485C72.9339 27.0701 73.0893 27.0728 73.2418 27.0809C73.3943 27.089 73.6245 27.0809 73.8144 27.0998C74.1367 27.1322 74.295 27.2375 74.318 27.5212C74.3554 27.9695 74.3468 28.4206 74.3324 28.869C74.3266 29.0527 74.2029 29.1445 73.9899 29.1715C73.8188 29.1887 73.6469 29.1977 73.4749 29.1985L68.3556 29.2174H68.2981C67.7715 29.2093 67.6391 29.0986 67.6276 28.6232C67.6185 28.3173 67.6339 28.0112 67.6737 27.7075C67.7312 27.2673 67.8751 27.1457 68.3326 27.1052C68.56 27.0836 68.793 27.0836 69.0204 27.0809C69.8002 27.0701 69.8865 26.9944 69.8865 26.2787C69.8865 24.4068 69.8779 22.535 69.8779 20.6632C69.8779 18.7913 69.8836 16.8817 69.8865 14.9936C69.8865 14.8478 69.8923 14.7046 69.8808 14.5615C69.852 14.2319 69.7311 14.105 69.3887 14.0753C69.1211 14.051 68.8506 14.0591 68.583 14.0537C67.8521 14.0402 67.6679 13.9051 67.6305 13.1407C67.6171 12.9068 67.618 12.6723 67.6334 12.4384C67.6622 12.0414 67.7744 11.9495 68.2146 11.936L68.4449 11.9414H71.6073C71.7793 11.9391 71.9513 11.9464 72.1224 11.963C72.2922 11.9847 72.3958 12.09 72.413 12.2521C72.4303 12.4141 72.4303 12.5384 72.4303 12.6842V19.4936H72.4188Z" fill="#0E0466"/>
<path d="M21.5686 33.7066C21.1399 33.8498 20.7514 33.7849 20.3284 33.7633C20.314 33.6283 20.2881 33.5256 20.2939 33.423C20.3284 32.6046 20.0694 31.8618 19.6263 31.1676C19.468 30.9218 19.304 30.676 19.1601 30.4248C18.6652 29.5659 18.5127 28.6637 18.7774 27.7103C18.9385 27.1403 18.9011 26.565 18.7803 25.9978C18.6997 25.6277 18.576 25.2658 18.4666 24.9039C18.3343 24.4771 18.012 24.2448 17.5602 24.1719C17.258 24.1205 16.953 24.1016 16.648 24.0692C15.3991 23.945 14.2625 23.5506 13.2553 22.8429C12.9762 22.6485 12.7201 22.4324 12.5388 22.1488C12.4928 22.0758 12.4698 21.9921 12.4122 21.8652C12.6395 21.8787 12.6942 22.0353 12.8064 22.1083C12.9187 22.1812 13.0827 22.1515 13.1316 22.0191C13.1695 21.9262 13.1868 21.827 13.1823 21.7276C13.1779 21.6282 13.1518 21.5307 13.1057 21.4411C13 21.2298 12.8769 21.0266 12.7374 20.8334C12.3633 20.331 11.9825 19.834 11.595 19.3424C11.3763 19.0642 11.29 18.7643 11.3533 18.4294C11.3619 18.3727 11.4338 18.3133 11.4914 18.2863C11.5489 18.2592 11.6122 18.3025 11.641 18.3376C11.7676 18.4942 11.8799 18.6617 12.0036 18.8211C12.1273 18.9804 12.2079 19.0912 12.4525 19.048C12.5618 18.4024 12.0928 17.9513 11.8252 17.4462C11.8482 17.2491 11.9777 17.1491 12.1417 17.0789C12.2828 17.0192 12.442 17.0086 12.5906 17.0492C13.0568 17.1626 13.4366 17.4084 13.6927 17.7785C13.9646 18.1704 14.2041 18.5813 14.4092 19.0074C14.5243 19.2451 14.6423 19.4369 14.8956 19.572C15.3358 19.807 15.6581 20.1689 15.966 20.5389C16.2365 20.8658 16.4955 21.2007 16.7746 21.5221C16.8812 21.6488 17.0073 21.7599 17.1487 21.8517C17.3386 21.9786 17.5458 21.9516 17.7328 21.8111C17.8681 21.7085 17.8911 21.5707 17.7962 21.4276C17.7774 21.396 17.7541 21.3669 17.7271 21.3412C17.307 20.9684 17.0969 20.4876 16.9473 19.9798C16.7228 19.2181 16.2279 18.632 15.6034 18.1404C15.1012 17.7471 14.6807 17.27 14.3632 16.7331C14.133 16.3388 13.9373 15.9282 13.7215 15.5258C13.5057 15.1233 13.4999 14.6938 13.5373 14.259C13.5489 14.1158 13.5834 13.97 13.7589 13.9159C13.8683 13.8808 13.969 13.9835 14.0352 14.1996C14.1013 14.4156 14.1647 14.6506 14.3344 14.8343C14.415 14.9207 14.5733 14.9126 14.6279 14.8127C14.6826 14.7128 14.7229 14.5777 14.7747 14.4643C14.8438 14.3076 14.979 14.2698 15.1488 14.3373C15.3186 14.4048 15.4308 14.521 15.4423 14.6993C15.4538 14.8775 15.4567 15.1314 15.4682 15.3475C15.4797 15.5636 15.4768 15.8175 15.5171 16.0471C15.6149 16.5765 16.0897 16.879 16.6509 16.7953C16.8609 16.7629 16.9674 16.6359 16.9041 16.4522C16.648 15.7175 16.4005 14.9802 16.1128 14.2563C15.9947 13.971 15.8296 13.7048 15.6236 13.4676C15.2927 13.0759 15.0855 12.641 14.9617 12.163C14.9387 12.0765 14.9128 11.9901 14.8927 11.901C14.6797 11.0258 14.6797 11.0258 14.2078 10.4343L14.6769 10.202C14.5877 10.0345 14.5071 9.89676 14.438 9.75091C14.3901 9.655 14.3534 9.55447 14.3287 9.45109C14.32 9.41327 14.3661 9.34305 14.4035 9.32414C14.4409 9.30523 14.5359 9.31063 14.5589 9.34035C14.6568 9.44945 14.7435 9.56702 14.8179 9.69148C14.9042 9.83464 15.0078 9.95889 15.1804 10.021C15.4106 10.0993 15.6149 10.0102 15.6725 9.79142C15.707 9.65097 15.7099 9.50511 15.7502 9.36736C15.7675 9.30793 15.848 9.2242 15.897 9.2269C15.9875 9.23291 16.0721 9.27164 16.1329 9.33494C16.1905 9.39707 16.2164 9.49701 16.2221 9.58344C16.2327 9.72646 16.2317 9.87003 16.2192 10.0129C16.1933 10.4802 16.3056 10.9205 16.5904 11.2932C16.9933 11.8226 17.1142 12.4033 17.0595 13.0327C17.048 13.1948 17.048 13.3568 17.0422 13.5189C17.0315 13.8631 17.1274 14.2027 17.3185 14.4967C17.4077 14.6344 17.4969 14.7722 17.589 14.9099C17.8537 15.3151 18.0407 15.7446 18.0494 16.228C18.0523 16.2794 18.0782 16.328 18.1012 16.4036C18.2048 16.4225 18.3141 16.4549 18.4235 16.4522C18.7457 16.4522 18.8839 16.3469 18.9126 16.0417C18.9328 15.7932 18.9098 15.5393 18.8983 15.2881C18.8925 15.1989 18.8551 15.1125 18.8465 15.0234C18.8004 14.6506 18.9357 14.4399 19.3011 14.3076C19.7529 14.1374 19.75 14.1374 19.7529 13.6999C19.7547 12.8332 19.5768 11.9745 19.2292 11.1717C18.9385 10.5018 19.0134 9.83194 19.0795 9.15127C19.0905 9.09842 19.1099 9.04743 19.1371 9.00001C19.1521 8.972 19.1737 8.9476 19.2004 8.92866C19.227 8.90972 19.2579 8.89675 19.2906 8.89075C19.3234 8.88476 19.3572 8.88589 19.3895 8.89406C19.4217 8.90223 19.4515 8.91722 19.4767 8.93789C19.5208 8.97218 19.5596 9.01219 19.5918 9.05673C19.6324 9.11804 19.6679 9.18215 19.6982 9.24851C19.868 9.62396 20.1442 9.82113 20.6018 9.732C20.6737 9.71579 20.7514 9.7293 20.8262 9.7293C20.901 9.7293 20.9413 9.78872 20.9672 9.82924C21.1428 10.1183 21.3874 10.2641 21.7586 10.2695C22.0578 10.2722 22.1845 10.4667 22.0521 10.7125C21.6953 11.3796 21.6722 12.0954 21.6463 12.8166C21.6348 13.1569 21.5859 13.4973 21.537 13.8322C21.4938 14.1185 21.537 14.3697 21.7758 14.5723C22.0147 14.7749 22.3168 14.8235 22.6132 14.6317C23.0909 14.3211 23.4995 13.943 23.7556 13.4433C23.8793 13.2002 23.9887 12.949 24.0952 12.6978C24.3225 12.1657 24.5441 11.6281 24.7656 11.0906C24.8347 10.9205 24.9268 10.7611 25.0966 10.6639C25.157 10.6288 25.2462 10.6044 25.3095 10.6206C25.3728 10.6369 25.4563 10.7098 25.5253 10.7557C25.3901 10.9853 25.2577 11.1825 25.157 11.3905C25.1253 11.4526 25.157 11.566 25.203 11.6281C25.2491 11.6903 25.3555 11.6768 25.4131 11.6498C25.5686 11.5835 25.7161 11.502 25.8534 11.4067C25.9771 11.3202 26.0721 11.2041 26.1929 11.1176C26.4231 10.9556 26.662 11.0501 26.6907 11.3121C26.708 11.4742 26.6965 11.6362 26.7109 11.7983C26.7396 12.0738 26.8634 12.1657 27.1713 12.1549C27.2461 12.1521 27.3209 12.1305 27.3986 12.1305C27.5684 12.1278 27.6662 12.2872 27.5943 12.4358C27.5112 12.5994 27.3766 12.7351 27.2087 12.8247C26.9008 13.0057 26.9929 13.3676 27.3008 13.5189C27.5166 13.6269 27.7439 13.6188 27.9741 13.5972C28.3194 13.5648 28.6619 13.5378 29.0072 13.5135C29.1022 13.5108 29.1974 13.5135 29.2921 13.5216C29.4215 13.5243 29.5165 13.581 29.5568 13.6918C29.5971 13.8025 29.6028 13.9565 29.482 14.0402C29.1885 14.2428 28.8863 14.4291 28.5813 14.6155C28.4892 14.6749 28.3655 14.702 28.2907 14.7749C28.2158 14.8478 28.2187 14.9396 28.2331 15.018C28.2475 15.0963 28.3338 15.1341 28.3971 15.1422C28.5669 15.1638 28.7396 15.1503 28.9122 15.1692C28.9755 15.1773 29.0762 15.226 29.0877 15.2746C29.1114 15.3576 29.099 15.446 29.0532 15.5204C28.9496 15.6635 28.7741 15.7175 28.5986 15.7121C28.0835 15.6986 27.6835 15.9309 27.3008 16.2172C27.0303 16.4144 26.7512 16.6062 26.4605 16.7818C26.0663 17.0249 25.908 17.349 25.9541 17.792C25.9857 18.1107 26.003 18.4402 25.9569 18.7562C25.885 19.2289 25.6289 19.6368 25.2807 19.9852C25.1512 20.1176 25.0102 20.2391 24.8663 20.3607C24.3225 20.8145 23.9484 21.3682 23.7642 22.0326C23.7096 22.2244 23.6376 22.4108 23.6031 22.6053C23.5599 22.8429 23.6635 22.978 23.9052 23.0563C24.3455 23.1941 24.7369 23.1077 25.0793 22.8186C25.1484 22.7559 25.211 22.6872 25.2663 22.6134C25.8188 21.9219 26.5497 21.433 27.3411 21.0197C27.3897 20.9899 27.4447 20.9705 27.5022 20.963C27.554 20.963 27.6231 20.9792 27.6518 21.0116C27.6806 21.044 27.695 21.1224 27.672 21.1548C27.5655 21.3033 27.4475 21.4438 27.3295 21.5843C27.2605 21.6707 27.177 21.749 27.1137 21.8355C27.0504 21.9219 27.0648 22.0704 27.1569 22.1272C27.249 22.1839 27.3842 22.2055 27.4763 22.1299C27.5684 22.0542 27.7123 21.8949 27.8331 21.7814C27.954 21.668 28.0029 21.6464 28.0921 21.5761C28.1353 21.6221 28.1727 21.6437 28.1784 21.6734C28.213 21.7895 28.1957 21.9381 28.377 21.9624C28.5583 21.9867 28.636 21.9084 28.7281 21.8111C28.8201 21.7139 28.9467 21.5599 29.0619 21.4384C29.1367 21.3601 29.2144 21.2736 29.3064 21.2196C29.3985 21.1656 29.4705 21.1953 29.5136 21.2304C29.5568 21.2655 29.5913 21.3736 29.5654 21.4195C29.5101 21.5324 29.4308 21.6335 29.3323 21.7166C29.2489 21.7841 29.128 21.8084 29.0273 21.8598C28.9777 21.8864 28.9356 21.9236 28.9044 21.9686C28.8732 22.0135 28.8539 22.0647 28.848 22.118C28.8421 22.1713 28.8498 22.2252 28.8705 22.2752C28.8911 22.3251 28.9242 22.3698 28.9669 22.4054C29.0048 22.4295 29.0477 22.446 29.0927 22.4539C29.1378 22.4618 29.1841 22.4609 29.2287 22.4513C29.3554 22.4135 29.459 22.3243 29.5827 22.273C29.6847 22.2267 29.7949 22.1984 29.9079 22.1893C29.9683 22.1866 30.0575 22.2406 30.0863 22.2919C30.115 22.3433 30.1035 22.4459 30.0632 22.481C29.9704 22.5691 29.8612 22.6405 29.741 22.6917C29.3899 22.8375 29.036 22.9753 28.6763 23.0995C27.6979 23.4426 26.7972 23.9045 25.9742 24.5149C25.2203 25.074 24.3426 25.3765 23.3902 25.4765C22.97 25.5197 22.5499 25.5467 22.1298 25.5602C21.7989 25.571 21.5399 25.6818 21.3384 25.9276C21.0104 26.3273 20.6795 26.7244 20.337 27.1133C19.8076 27.7157 19.6838 28.3909 19.8709 29.1391C19.9963 29.648 20.1877 30.1406 20.4406 30.6058L20.9874 31.616C21.1514 31.9293 21.2464 32.2642 21.2003 32.61C21.1543 32.9557 21.2521 33.2825 21.514 33.5527C21.537 33.577 21.5399 33.6202 21.5686 33.7066ZM22.4952 20.3418C22.7168 20.8388 22.6592 20.99 22.2046 21.1521C22.0952 21.1899 21.9859 21.2169 21.8794 21.2547C21.2003 21.4924 20.6248 21.8733 20.1845 22.4135C19.6464 23.0806 19.3759 23.8315 19.4364 24.677C19.4565 24.9471 19.5169 25.201 19.7097 25.4387C20.0608 25.3765 20.3025 25.1929 20.5126 24.9498C20.9039 24.5068 21.3068 24.0746 21.6953 23.6317C21.9888 23.2994 22.2794 22.9672 22.547 22.6188C22.8146 22.2703 23.0794 21.8273 23.229 21.379C23.3786 20.9306 23.3643 20.4201 23.088 19.9771C22.8751 19.6341 22.5384 19.5017 22.1614 19.6422C21.7845 19.7826 21.5169 20.0257 21.3298 20.3526C21.2406 20.5065 21.2924 20.6821 21.4334 20.7874C21.5744 20.8928 21.6809 20.8658 21.8507 20.7469C22.0204 20.6281 22.196 20.412 22.4952 20.3418ZM20.7543 14.7506C20.7169 14.7506 20.691 14.7425 20.6824 14.7506C20.6248 14.7965 20.5586 14.837 20.5155 14.8937C20.1817 15.3367 19.9342 15.8175 19.8047 16.3496C19.586 17.2599 19.3529 18.1647 19.1371 19.075C19.0576 19.4074 18.998 19.7438 18.9587 20.0825C18.9208 20.4236 18.9711 20.7683 19.1054 21.0873C19.1688 21.2304 19.2666 21.3412 19.4335 21.3574C19.6004 21.3736 19.7788 21.2871 19.8479 21.1251C19.9122 20.9771 19.9502 20.8201 19.9601 20.6605C19.9745 20.358 19.9572 20.0528 19.9572 19.7475C19.9601 19.2721 20.0522 18.8184 20.3284 18.4105C20.4349 18.2538 20.4867 18.0891 20.4464 17.9C20.3658 17.5408 20.4234 17.1896 20.5212 16.8358C20.6773 16.2811 20.7793 15.7142 20.8262 15.1422C20.8377 15.0045 20.878 14.8559 20.7543 14.7506ZM22.3341 18.1431C22.524 18.0783 22.6017 18.0648 22.665 18.0297C23.3585 17.6434 24.0146 17.2112 24.5959 16.6845C25.1771 16.1578 25.5829 15.6365 25.9109 14.9991C26.0692 14.6938 26.2188 14.3832 26.3684 14.0726C26.4461 13.9078 26.4202 13.7782 26.2994 13.6837C26.1785 13.5891 25.9915 13.5648 25.8332 13.6891C25.6749 13.8133 25.4937 13.9781 25.3124 14.1077C24.9642 14.3643 24.6419 14.6479 24.3944 14.9937C24.1182 15.3799 23.8534 15.7743 23.606 16.1794C23.252 16.7548 22.9182 17.3409 22.478 17.8649C22.4348 17.9162 22.4147 17.9837 22.3341 18.1431ZM13.2237 20.0095C13.2611 20.1959 13.2525 20.2931 13.2985 20.358C13.4337 20.5497 13.5747 20.7469 13.7474 20.9117C14.0179 21.1683 14.2481 21.4492 14.4697 21.7436C14.7128 22.0653 14.9822 22.3687 15.2754 22.6512C15.6149 22.9807 16.0408 23.1887 16.507 23.3183C16.7631 23.3886 17.0192 23.4534 17.2782 23.5209C17.4163 23.556 17.54 23.4912 17.5976 23.3616C17.6246 23.3033 17.6319 23.2386 17.6185 23.1763C17.6052 23.114 17.5717 23.057 17.5228 23.0131C17.3991 22.9024 17.2631 22.8046 17.117 22.7214C16.5904 22.4135 16.1329 22.0353 15.7847 21.5518C15.1891 20.7307 14.2855 20.3634 13.2237 20.0095Z" fill="#C45D16"/>
</g>
<defs>
<clipPath id="clip0_2426_616">
<rect width="146.955" height="40" fill="white"/>
</clipPath>
</defs>
</svg>
